<svg width="51" height="42" viewBox="0 0 51 42" fill="none" xmlns="http://www.w3.org/2000/svg">
<path fill-rule="evenodd" clip-rule="evenodd" d="M42.5272 9.61257C40.6846 6.98124 37.1719 5.87294 32.9806 6.20817C28.7893 6.54341 23.9196 8.32239 19.3654 11.4663C16.6872 13.3151 14.4164 15.43 12.6387 17.6286H14.1896H14.8755C16.4006 15.9764 18.2244 14.3787 20.307 12.9306C24.6951 9.87965 29.3062 8.13757 33.1753 7.74198C37.0897 7.34173 39.9547 8.32702 41.339 10.318C42.7233 12.3089 42.6493 15.3377 40.9108 18.8678C40.6814 19.3336 40.425 19.8035 40.1422 20.2753L38.6785 18.0965H36.6129L39.2384 21.6631C37.4019 24.2731 34.795 26.8784 31.5657 29.1238C27.1776 32.1748 22.5665 33.9168 18.6975 34.3124C14.783 34.7127 11.918 33.7273 10.5337 31.7364C9.73876 30.593 9.42474 29.1075 9.63066 27.3813C9.171 27.3203 8.72144 27.1998 8.2904 27.0115C8.23895 27.5482 8.22901 28.0732 8.26206 28.5829C8.29196 30.0317 8.67688 31.3578 9.45941 32.4833C10.4555 33.9159 11.9804 34.8577 13.8534 35.3354C15.394 35.7961 17.1728 35.9457 19.0942 35.7921C23.2856 35.4569 28.1552 33.6779 32.7095 30.534C35.7703 28.4209 38.2992 25.9603 40.1679 23.4245L41.4708 25.3833H43.5364L41.2101 21.8939C41.6701 21.1592 42.0733 20.4227 42.4166 19.6909C44.1938 15.9044 44.3709 12.2455 42.5272 9.61257ZM49.9808 20.4424C49.9808 20.8646 49.884 21.252 49.6902 21.605C49.4964 21.951 49.1989 22.2312 48.7975 22.4458C48.3962 22.6603 47.898 22.7675 47.3028 22.7675H46.2025V25.3833H44.4275V18.0965H47.3028C47.8841 18.0965 48.3754 18.1969 48.7767 18.3976C49.1781 18.5982 49.4792 18.875 49.6798 19.2279C49.8805 19.5809 49.9808 19.9857 49.9808 20.4424ZM47.1679 21.3559C47.5069 21.3559 47.7595 21.2762 47.9256 21.1171C48.0916 20.958 48.1747 20.7331 48.1747 20.4424C48.1747 20.1518 48.0916 19.9269 47.9256 19.7678C47.7595 19.6085 47.5069 19.529 47.1679 19.529H46.2025V21.3559H47.1679Z" fill="#8B5CF6"/>
<path d="M2.9285 19.5081C3.33678 19.5081 3.69316 19.5912 3.99764 19.7572C4.30904 19.9234 4.54779 20.1414 4.71387 20.4112V19.5912H6.48886V25.3729C6.48886 25.9057 6.38159 26.3867 6.16708 26.8157C5.95947 27.2517 5.63769 27.5976 5.20173 27.8537C4.77269 28.1097 4.23639 28.2378 3.59282 28.2378C2.73474 28.2378 2.03928 28.0336 1.50643 27.6254C0.973584 27.224 0.669102 26.6773 0.592981 25.9853H2.34721C2.40257 26.2068 2.53405 26.3798 2.74166 26.5043C2.94926 26.6358 3.20529 26.7015 3.50979 26.7015C3.87655 26.7015 4.16718 26.5943 4.38171 26.3798C4.60315 26.1721 4.71387 25.8365 4.71387 25.3729V24.5528C4.54087 24.8228 4.30212 25.0441 3.99764 25.2172C3.69316 25.3833 3.33678 25.4664 2.9285 25.4664C2.45102 25.4664 2.01851 25.3452 1.63099 25.103C1.24347 24.8539 0.935523 24.5044 0.707162 24.0546C0.485722 23.598 0.375 23.072 0.375 22.4769C0.375 21.8817 0.485722 21.3593 0.707162 20.9094C0.935523 20.4597 1.24347 20.1137 1.63099 19.8715C2.01851 19.6293 2.45102 19.5081 2.9285 19.5081ZM4.71387 22.4872C4.71387 22.0443 4.5893 21.6949 4.34018 21.4388C4.09798 21.1828 3.80042 21.0548 3.44751 21.0548C3.09458 21.0548 2.79356 21.1828 2.54444 21.4388C2.30223 21.6879 2.18113 22.034 2.18113 22.4769C2.18113 22.9198 2.30223 23.2727 2.54444 23.5357C2.79356 23.7917 3.09458 23.9197 3.44751 23.9197C3.80042 23.9197 4.09798 23.7917 4.34018 23.5357C4.5893 23.2796 4.71387 22.9301 4.71387 22.4872ZM13.2329 22.3938C13.2329 22.5599 13.2225 22.733 13.2017 22.9129H9.18468C9.21235 23.2727 9.32654 23.5494 9.52722 23.7432C9.73481 23.93 9.9874 24.0234 10.285 24.0234C10.7278 24.0234 11.0358 23.8366 11.2088 23.4629H13.098C13.0011 23.8435 12.8246 24.1861 12.5686 24.4905C12.3194 24.795 12.0046 25.0338 11.624 25.2068C11.2434 25.3799 10.8178 25.4664 10.3472 25.4664C9.7798 25.4664 9.27463 25.3452 8.83175 25.103C8.38886 24.8608 8.04287 24.5148 7.79375 24.0651C7.54463 23.6152 7.42006 23.0892 7.42006 22.4872C7.42006 21.8852 7.54116 21.3593 7.78337 20.9094C8.03249 20.4597 8.37849 20.1137 8.82137 19.8715C9.26426 19.6293 9.77287 19.5081 10.3472 19.5081C10.9078 19.5081 11.406 19.6257 11.842 19.8611C12.2779 20.0964 12.617 20.432 12.8592 20.868C13.1083 21.3039 13.2329 21.8125 13.2329 22.3938ZM11.4164 21.9267C11.4164 21.6222 11.3126 21.3801 11.105 21.2002C10.8974 21.0203 10.6379 20.9302 10.3265 20.9302C10.0289 20.9302 9.77634 21.0167 9.56874 21.1897C9.36805 21.3628 9.24349 21.6084 9.19505 21.9267H11.4164ZM17.6985 19.5289C18.3766 19.5289 18.9165 19.7503 19.3178 20.1932C19.7261 20.6292 19.9302 21.2313 19.9302 21.9993V25.3833H18.1656V22.2381C18.1656 21.8506 18.0652 21.5496 17.8646 21.3351C17.6639 21.1205 17.394 21.0133 17.055 21.0133C16.7159 21.0133 16.4459 21.1205 16.2453 21.3351C16.0446 21.5496 15.9443 21.8506 15.9443 22.2381V25.3833H14.1693V19.5912H15.9443V20.3594C16.1242 20.1033 16.3664 19.9026 16.6708 19.7572C16.9753 19.6051 17.3179 19.5289 17.6985 19.5289ZM22.0564 18.9892C21.745 18.9892 21.4889 18.8992 21.2882 18.7193C21.0945 18.5324 20.9976 18.3041 20.9976 18.0342C20.9976 17.7573 21.0945 17.529 21.2882 17.3491C21.4889 17.1623 21.745 17.0688 22.0564 17.0688C22.3609 17.0688 22.61 17.1623 22.8038 17.3491C23.0043 17.529 23.1047 17.7573 23.1047 18.0342C23.1047 18.3041 23.0043 18.5324 22.8038 18.7193C22.61 18.8992 22.3609 18.9892 22.0564 18.9892ZM22.9387 19.5912V25.3833H21.1637V19.5912H22.9387ZM29.9444 19.5912V25.3833H28.1694V24.5944C27.9895 24.8505 27.7438 25.058 27.4324 25.2172C27.1279 25.3694 26.7888 25.4456 26.4151 25.4456C25.9723 25.4456 25.5813 25.3487 25.2422 25.155C24.9031 24.9542 24.6401 24.6671 24.4533 24.2934C24.2664 23.9197 24.173 23.4803 24.173 22.9751V19.5912H25.9377V22.7364C25.9377 23.1239 26.038 23.4248 26.2387 23.6394C26.4394 23.854 26.7092 23.9612 27.0484 23.9612C27.3943 23.9612 27.6676 23.854 27.8684 23.6394C28.0691 23.4248 28.1694 23.1239 28.1694 22.7364V19.5912H29.9444ZM33.5756 25.4664C33.0705 25.4664 32.6206 25.3799 32.2263 25.2068C31.8318 25.0338 31.5204 24.7985 31.2921 24.501C31.0636 24.1965 30.9357 23.8574 30.9079 23.4837H32.6622C32.6829 23.6844 32.7763 23.8471 32.9425 23.9716C33.1085 24.0962 33.3127 24.1585 33.5548 24.1585C33.7764 24.1585 33.9458 24.1169 34.0636 24.0339C34.1881 23.9439 34.2504 23.8297 34.2504 23.6914C34.2504 23.5252 34.1638 23.4042 33.9908 23.328C33.8178 23.2449 33.5376 23.1551 33.15 23.0581C32.7349 22.9613 32.3888 22.8609 32.1121 22.7572C31.8352 22.6463 31.5965 22.4769 31.3958 22.2485C31.1951 22.0132 31.0948 21.6984 31.0948 21.3039C31.0948 20.9717 31.1848 20.6708 31.3647 20.4008C31.5515 20.124 31.8215 19.906 32.1743 19.7469C32.5342 19.5878 32.9598 19.5081 33.4511 19.5081C34.1776 19.5081 34.7486 19.688 35.1638 20.048C35.5859 20.4078 35.8281 20.8852 35.8904 21.4804H34.2504C34.2227 21.2797 34.1326 21.1205 33.9805 21.0028C33.8351 20.8852 33.6413 20.8265 33.3991 20.8265C33.1916 20.8265 33.0324 20.868 32.9217 20.951C32.811 21.0271 32.7557 21.1343 32.7557 21.2728C32.7557 21.4388 32.8422 21.5634 33.0151 21.6465C33.195 21.7295 33.4719 21.8125 33.8456 21.8956C34.2746 22.0063 34.6241 22.117 34.8939 22.2278C35.1638 22.3315 35.399 22.5045 35.5998 22.7467C35.8074 22.9821 35.9146 23.3003 35.9215 23.7017C35.9215 24.0408 35.8247 24.3453 35.6309 24.6151C35.4441 24.8781 35.1707 25.0857 34.8109 25.2379C34.4579 25.3902 34.0462 25.4664 33.5756 25.4664Z" fill="#F4F4F5"/>
</svg>
