<svg width="65" height="65" viewBox="0 0 65 65" fill="none" xmlns="http://www.w3.org/2000/svg">
<rect x="0.5" y="0.5" width="64" height="64" rx="32" fill="black"/>
<path fill-rule="evenodd" clip-rule="evenodd" d="M51.2921 20.5738C49.2912 17.7165 45.4768 16.513 40.9255 16.877C36.3742 17.241 31.0862 19.1728 26.1408 22.5868C23.2326 24.5944 20.7667 26.8909 18.8363 29.2784H20.5205H21.2653C22.9214 27.4843 24.9018 25.7493 27.1633 24.1768C31.9283 20.8638 36.9355 18.9721 41.1369 18.5425C45.3875 18.1079 48.4986 19.1778 50.0018 21.3398C51.505 23.5017 51.4247 26.7907 49.5368 30.624C49.2877 31.1298 49.0093 31.6401 48.7022 32.1524L47.1128 29.7865H44.8698L47.7208 33.6594C45.7266 36.4936 42.8957 39.3227 39.3891 41.7609C34.624 45.074 29.6169 46.9656 25.4156 47.3952C21.1648 47.8299 18.0537 46.7599 16.5505 44.5979C15.6873 43.3563 15.3463 41.7432 15.5699 39.8688C15.0708 39.8025 14.5826 39.6717 14.1145 39.4672C14.0587 40.05 14.0479 40.6201 14.0838 41.1736C14.1162 42.7468 14.5342 44.1868 15.384 45.409C16.4656 46.9646 18.1215 47.9873 20.1554 48.5061C21.8283 49.0063 23.7599 49.1688 25.8463 49.002C30.3977 48.638 35.6856 46.7062 40.6311 43.2923C43.9548 40.9977 46.7009 38.3257 48.7301 35.5721L50.1449 37.6992H52.388L49.8619 33.91C50.3614 33.1122 50.7992 32.3125 51.172 31.5178C53.1018 27.4061 53.2941 23.4329 51.2921 20.5738ZM59.3859 32.3339C59.3859 32.7923 59.2808 33.213 59.0703 33.5963C58.8599 33.972 58.5368 34.2763 58.101 34.5093C57.6652 34.7423 57.1242 34.8587 56.4779 34.8587H55.2831V37.6992H53.3556V29.7865H56.4779C57.1091 29.7865 57.6426 29.8955 58.0784 30.1134C58.5143 30.3312 58.8412 30.6318 59.0591 31.015C59.277 31.3984 59.3859 31.8379 59.3859 32.3339ZM56.3314 33.3258C56.6995 33.3258 56.9738 33.2393 57.1542 33.0665C57.3344 32.8937 57.4247 32.6495 57.4247 32.3339C57.4247 32.0183 57.3344 31.7741 57.1542 31.6013C56.9738 31.4283 56.6995 31.342 56.3314 31.342H55.2831V33.3258H56.3314Z" fill="#8B5CF6"/>
<path d="M8.29236 31.3193C8.73571 31.3193 9.1227 31.4095 9.45333 31.5898C9.79148 31.7703 10.0507 32.007 10.2311 32.3V31.4095H12.1585V37.6878C12.1585 38.2664 12.0421 38.7887 11.8091 39.2546C11.5837 39.728 11.2343 40.1036 10.7608 40.3817C10.295 40.6597 9.71259 40.7988 9.01374 40.7988C8.08196 40.7988 7.32676 40.5771 6.74814 40.1338C6.16953 39.6979 5.83889 39.1043 5.75624 38.3528H7.66114C7.72126 38.5934 7.86403 38.7812 8.08947 38.9164C8.31491 39.0592 8.59293 39.1306 8.92358 39.1306C9.32184 39.1306 9.63744 39.0142 9.87039 38.7812C10.1109 38.5557 10.2311 38.1913 10.2311 37.6878V36.7973C10.0432 37.0905 9.78397 37.3308 9.45333 37.5188C9.1227 37.6991 8.73571 37.7894 8.29236 37.7894C7.77387 37.7894 7.30421 37.6578 6.8834 37.3948C6.4626 37.1243 6.1282 36.7447 5.88022 36.2563C5.63976 35.7605 5.51953 35.1893 5.51953 34.5431C5.51953 33.8968 5.63976 33.3295 5.88022 32.841C6.1282 32.3526 6.4626 31.9769 6.8834 31.7139C7.30421 31.4509 7.77387 31.3193 8.29236 31.3193ZM10.2311 34.5543C10.2311 34.0733 10.0958 33.6939 9.8253 33.4158C9.56229 33.1378 9.23917 32.9988 8.85595 32.9988C8.47271 32.9988 8.14583 33.1378 7.87531 33.4158C7.6123 33.6863 7.4808 34.0622 7.4808 34.5431C7.4808 35.024 7.6123 35.4072 7.87531 35.6928C8.14583 35.9708 8.47271 36.1098 8.85595 36.1098C9.23917 36.1098 9.56229 35.9708 9.8253 35.6928C10.0958 35.4147 10.2311 35.0352 10.2311 34.5543ZM19.4818 34.4529C19.4818 34.6332 19.4706 34.8212 19.448 35.0165H15.0859C15.116 35.4072 15.24 35.7077 15.4579 35.9182C15.6833 36.121 15.9576 36.2224 16.2807 36.2224C16.7616 36.2224 17.096 36.0196 17.2839 35.6138H19.3354C19.2301 36.0271 19.0385 36.3991 18.7605 36.7297C18.4899 37.0603 18.148 37.3196 17.7348 37.5075C17.3215 37.6954 16.8593 37.7894 16.3483 37.7894C15.7321 37.7894 15.1836 37.6578 14.7027 37.3948C14.2217 37.1318 13.846 36.756 13.5755 36.2677C13.305 35.7792 13.1697 35.208 13.1697 34.5543C13.1697 33.9006 13.3012 33.3295 13.5642 32.841C13.8348 32.3526 14.2105 31.9769 14.6914 31.7139C15.1723 31.4509 15.7246 31.3193 16.3483 31.3193C16.957 31.3193 17.498 31.447 17.9715 31.7026C18.4448 31.9581 18.813 32.3225 19.076 32.796C19.3465 33.2693 19.4818 33.8216 19.4818 34.4529ZM17.5093 33.9456C17.5093 33.615 17.3966 33.3521 17.1712 33.1567C16.9457 32.9614 16.664 32.8635 16.3258 32.8635C16.0026 32.8635 15.7284 32.9575 15.503 33.1453C15.285 33.3333 15.1498 33.6 15.0972 33.9456H17.5093ZM24.331 31.3419C25.0674 31.3419 25.6536 31.5823 26.0894 32.0632C26.5328 32.5367 26.7544 33.1905 26.7544 34.0245V37.6991H24.8382V34.2838C24.8382 33.863 24.7292 33.5361 24.5114 33.3032C24.2934 33.0702 24.0004 32.9538 23.6322 32.9538C23.264 32.9538 22.9708 33.0702 22.753 33.3032C22.5351 33.5361 22.4261 33.863 22.4261 34.2838V37.6991H20.4987V31.4095H22.4261V32.2437C22.6215 31.9656 22.8845 31.7477 23.215 31.5898C23.5457 31.4246 23.9177 31.3419 24.331 31.3419ZM29.0632 30.7558C28.7251 30.7558 28.447 30.6581 28.2291 30.4627C28.0187 30.2598 27.9135 30.0119 27.9135 29.7188C27.9135 29.4181 28.0187 29.1702 28.2291 28.9748C28.447 28.772 28.7251 28.6705 29.0632 28.6705C29.3939 28.6705 29.6644 28.772 29.8748 28.9748C30.0926 29.1702 30.2016 29.4181 30.2016 29.7188C30.2016 30.0119 30.0926 30.2598 29.8748 30.4627C29.6644 30.6581 29.3939 30.7558 29.0632 30.7558ZM30.0213 31.4095V37.6991H28.0939V31.4095H30.0213ZM37.6288 31.4095V37.6991H35.7013V36.8425C35.506 37.1206 35.2391 37.3459 34.901 37.5188C34.5703 37.684 34.2021 37.7668 33.7963 37.7668C33.3155 37.7668 32.8909 37.6616 32.5227 37.4512C32.1545 37.2332 31.8689 36.9214 31.666 36.5156C31.4631 36.1098 31.3616 35.6327 31.3616 35.0841V31.4095H33.2779V34.8249C33.2779 35.2457 33.3868 35.5724 33.6048 35.8054C33.8227 36.0385 34.1157 36.1549 34.484 36.1549C34.8596 36.1549 35.1564 36.0385 35.3745 35.8054C35.5924 35.5724 35.7013 35.2457 35.7013 34.8249V31.4095H37.6288ZM41.5719 37.7894C41.0234 37.7894 40.5348 37.6954 40.1067 37.5075C39.6783 37.3196 39.3401 37.0641 39.0922 36.7411C38.8441 36.4104 38.7052 36.0422 38.675 35.6364H40.58C40.6025 35.8543 40.7039 36.031 40.8844 36.1662C41.0646 36.3015 41.2864 36.3691 41.5493 36.3691C41.7899 36.3691 41.9739 36.324 42.1018 36.2338C42.237 36.1361 42.3046 36.0121 42.3046 35.8619C42.3046 35.6814 42.2106 35.55 42.0227 35.4673C41.8349 35.3771 41.5306 35.2795 41.1097 35.1742C40.659 35.0691 40.2831 34.9601 39.9827 34.8475C39.682 34.727 39.4228 34.5431 39.2048 34.2951C38.9869 34.0396 38.878 33.6977 38.878 33.2693C38.878 32.9086 38.9757 32.5819 39.1711 32.2887C39.3739 31.9881 39.6671 31.7514 40.0502 31.5786C40.441 31.4058 40.9032 31.3193 41.4367 31.3193C42.2256 31.3193 42.8456 31.5146 43.2965 31.9056C43.7548 32.2963 44.0178 32.8147 44.0855 33.461H42.3046C42.2745 33.2431 42.1767 33.0702 42.0115 32.9424C41.8537 32.8147 41.6432 32.7509 41.3802 32.7509C41.1549 32.7509 40.982 32.796 40.8618 32.8861C40.7416 32.9688 40.6815 33.0852 40.6815 33.2356C40.6815 33.4158 40.7755 33.5511 40.9632 33.6414C41.1586 33.7315 41.4593 33.8216 41.8651 33.9119C42.3309 34.0321 42.7104 34.1523 43.0034 34.2726C43.2965 34.3852 43.5519 34.5731 43.7699 34.8361C43.9954 35.0917 44.1118 35.4372 44.1193 35.8731C44.1193 36.2413 44.0142 36.572 43.8037 36.865C43.6009 37.1505 43.304 37.376 42.9133 37.5412C42.53 37.7066 42.0829 37.7894 41.5719 37.7894Z" fill="#F4F4F5"/>
</svg>
