<svg width="32" height="32" viewBox="0 0 32 32" fill="none" xmlns="http://www.w3.org/2000/svg">
<path d="M15.999 29.998C25.333 29.998 29.998 23.73 29.998 15.998C29.998 8.268 25.333 2 15.998 2C6.665 2 2 8.268 2 15.999C2 23.73 6.664 29.998 15.999 29.998Z" fill="#FFB02E"/>
<path d="M10.5 21C11.0909 21 11.6761 20.8836 12.2221 20.6575C12.768 20.4313 13.2641 20.0998 13.682 19.682C14.0998 19.2641 14.4313 18.768 14.6575 18.2221C14.8836 17.6761 15 17.0909 15 16.5C15 15.9091 14.8836 15.3239 14.6575 14.7779C14.4313 14.232 14.0998 13.7359 13.682 13.318C13.2641 12.9002 12.768 12.5687 12.2221 12.3425C11.6761 12.1164 11.0909 12 10.5 12C9.30653 12 8.16193 12.4741 7.31802 13.318C6.47411 14.1619 6 15.3065 6 16.5C6 17.6935 6.47411 18.8381 7.31802 19.682C8.16193 20.5259 9.30653 21 10.5 21ZM21.5 21C22.0909 21 22.6761 20.8836 23.2221 20.6575C23.768 20.4313 24.2641 20.0998 24.682 19.682C25.0998 19.2641 25.4313 18.768 25.6575 18.2221C25.8836 17.6761 26 17.0909 26 16.5C26 15.9091 25.8836 15.3239 25.6575 14.7779C25.4313 14.232 25.0998 13.7359 24.682 13.318C24.2641 12.9002 23.768 12.5687 23.2221 12.3425C22.6761 12.1164 22.0909 12 21.5 12C20.3065 12 19.1619 12.4741 18.318 13.318C17.4741 14.1619 17 15.3065 17 16.5C17 17.6935 17.4741 18.8381 18.318 19.682C19.1619 20.5259 20.3065 21 21.5 21Z" fill="white"/>
<path d="M14.29 12.501C14.3883 12.5063 14.4847 12.5308 14.5735 12.5733C14.6624 12.6158 14.742 12.6754 14.8079 12.7487C14.8737 12.8219 14.9245 12.9074 14.9572 13.0003C14.99 13.0932 15.0042 13.1916 14.999 13.29C14.9937 13.3884 14.9691 13.4847 14.9266 13.5736C14.8841 13.6624 14.8246 13.7421 14.7513 13.8079C14.678 13.8737 14.5925 13.9245 14.4996 13.9573C14.4067 13.9901 14.3083 14.0043 14.21 13.999C13.193 13.945 12.2209 13.695 11.3929 13.119C10.5579 12.537 9.93295 11.667 9.53895 10.488C9.50489 10.3939 9.48999 10.294 9.49513 10.1941C9.50027 10.0942 9.52534 9.99636 9.56886 9.9063C9.61239 9.81623 9.67349 9.73578 9.74858 9.66969C9.82366 9.60359 9.91121 9.55318 10.0061 9.52143C10.1009 9.48968 10.2012 9.47722 10.3009 9.4848C10.4007 9.49237 10.4979 9.51982 10.5869 9.56553C10.6758 9.61124 10.7548 9.67429 10.819 9.75097C10.8833 9.82764 10.9315 9.91639 10.961 10.012C11.271 10.94 11.723 11.521 12.251 11.888C12.785 12.26 13.461 12.457 14.29 12.501ZM17.7099 12.501C17.5113 12.5116 17.325 12.6007 17.192 12.7487C17.0591 12.8966 16.9903 13.0914 17.0009 13.29C17.0116 13.4886 17.1006 13.6749 17.2486 13.8079C17.3966 13.9409 17.5913 14.0096 17.79 13.999C18.807 13.945 19.779 13.695 20.607 13.119C21.442 12.537 22.067 11.667 22.461 10.488C22.495 10.3939 22.5099 10.294 22.5048 10.1941C22.4996 10.0942 22.4746 9.99636 22.431 9.9063C22.3875 9.81623 22.3264 9.73578 22.2513 9.66969C22.1762 9.60359 22.0887 9.55318 21.9938 9.52143C21.899 9.48968 21.7987 9.47722 21.699 9.4848C21.5992 9.49237 21.502 9.51982 21.413 9.56553C21.3241 9.61124 21.2451 9.67429 21.1809 9.75097C21.1166 9.82764 21.0684 9.91639 21.0389 10.012C20.7289 10.94 20.276 11.521 19.749 11.888C19.215 12.26 18.5389 12.457 17.7099 12.501ZM16 24C13.995 24 13.066 25.104 12.894 25.447C12.8359 25.5655 12.7549 25.6714 12.6557 25.7584C12.5566 25.8455 12.4411 25.9121 12.3161 25.9543C12.1911 25.9966 12.0589 26.0137 11.9272 26.0046C11.7956 25.9955 11.667 25.9605 11.549 25.9015C11.4309 25.8425 11.3257 25.7607 11.2394 25.6609C11.1531 25.561 11.0874 25.4451 11.0461 25.3197C11.0049 25.1944 10.9888 25.0621 10.9989 24.9305C11.009 24.7989 11.045 24.6706 11.1049 24.553C11.6019 23.563 13.205 22 16 22C18.795 22 20.3999 23.562 20.8939 24.553C20.9575 24.6709 20.9968 24.8003 21.0093 24.9336C21.0219 25.067 21.0076 25.2015 20.9672 25.3292C20.9268 25.4569 20.8612 25.5751 20.7743 25.677C20.6873 25.7788 20.5808 25.8622 20.461 25.9221C20.3412 25.982 20.2106 26.0172 20.077 26.0256C19.9433 26.0341 19.8093 26.0156 19.6829 25.9713C19.5565 25.927 19.4403 25.8578 19.3412 25.7677C19.2421 25.6776 19.1621 25.5686 19.106 25.447C18.934 25.104 18.005 24 16 24ZM14 17C14 17.5304 13.7892 18.0391 13.4142 18.4142C13.0391 18.7893 12.5304 19 12 19C11.4695 19 10.9608 18.7893 10.5857 18.4142C10.2107 18.0391 9.99995 17.5304 9.99995 17C9.99995 16.4696 10.2107 15.9609 10.5857 15.5858C10.9608 15.2107 11.4695 15 12 15C12.5304 15 13.0391 15.2107 13.4142 15.5858C13.7892 15.9609 14 16.4696 14 17ZM22 17C22 17.5304 21.7892 18.0391 21.4142 18.4142C21.0391 18.7893 20.5304 19 20 19C19.4695 19 18.9608 18.7893 18.5857 18.4142C18.2107 18.0391 18 17.5304 18 17C18 16.4696 18.2107 15.9609 18.5857 15.5858C18.9608 15.2107 19.4695 15 20 15C20.5304 15 21.0391 15.2107 21.4142 15.5858C21.7892 15.9609 22 16.4696 22 17Z" fill="#402A32"/>
</svg>
