<svg width="32" height="32" viewBox="0 0 32 32" fill="none" xmlns="http://www.w3.org/2000/svg">
<path d="M15.999 29.998C25.333 29.998 29.998 23.73 29.998 15.998C29.998 8.268 25.333 2 15.998 2C6.665 2 2 8.268 2 15.999C2 23.73 6.664 29.998 15.999 29.998Z" fill="#FFB02E"/>
<path d="M8 13C8 12.7348 8.10536 12.4804 8.29289 12.2929C8.48043 12.1054 8.73478 12 9 12H13C13.2652 12 13.5196 12.1054 13.7071 12.2929C13.8946 12.4804 14 12.7348 14 13C14 13.2652 13.8946 13.5196 13.7071 13.7071C13.5196 13.8946 13.2652 14 13 14H9C8.73478 14 8.48043 13.8946 8.29289 13.7071C8.10536 13.5196 8 13.2652 8 13ZM18 13C18 12.7348 18.1054 12.4804 18.2929 12.2929C18.4804 12.1054 18.7348 12 19 12H23C23.2652 12 23.5196 12.1054 23.7071 12.2929C23.8946 12.4804 24 12.7348 24 13C24 13.2652 23.8946 13.5196 23.7071 13.7071C23.5196 13.8946 23.2652 14 23 14H19C18.7348 14 18.4804 13.8946 18.2929 13.7071C18.1054 13.5196 18 13.2652 18 13ZM11 19C10.7348 19 10.4804 19.1054 10.2929 19.2929C10.1054 19.4804 10 19.7348 10 20C10 20.2652 10.1054 20.5196 10.2929 20.7071C10.4804 20.8946 10.7348 21 11 21H21C21.2652 21 21.5196 20.8946 21.7071 20.7071C21.8946 20.5196 22 20.2652 22 20C22 19.7348 21.8946 19.4804 21.7071 19.2929C21.5196 19.1054 21.2652 19 21 19H11Z" fill="#402A32"/>
</svg>
