<svg width="32" height="32" viewBox="0 0 32 32" fill="none" xmlns="http://www.w3.org/2000/svg">
<path d="M15.999 29.998C25.333 29.998 29.998 23.73 29.998 15.998C29.998 8.268 25.333 2 15.998 2C6.665 2 2 8.268 2 15.999C2 23.73 6.664 29.998 15.999 29.998Z" fill="#FFB02E"/>
<path d="M10.42 16.224C10.9777 16.2326 11.5316 16.1302 12.0493 15.9227C12.5671 15.7152 13.0384 15.4068 13.4359 15.0154C13.8333 14.6241 14.149 14.1575 14.3644 13.643C14.5799 13.1285 14.6908 12.5763 14.6908 12.0185C14.6908 11.4607 14.5799 10.9085 14.3644 10.394C14.149 9.87945 13.8333 9.41293 13.4359 9.02156C13.0384 8.6302 12.5671 8.32179 12.0493 8.11431C11.5316 7.90682 10.9777 7.8044 10.42 7.813C9.31582 7.83002 8.26267 8.28059 7.48788 9.06742C6.71308 9.85426 6.27881 10.9142 6.27881 12.0185C6.27881 13.1228 6.71308 14.1827 7.48788 14.9696C8.26267 15.7564 9.31582 16.207 10.42 16.224ZM21.568 16.301C22.6937 16.301 23.7733 15.8538 24.5693 15.0578C25.3653 14.2618 25.8125 13.1822 25.8125 12.0565C25.8125 10.9308 25.3653 9.85118 24.5693 9.05518C23.7733 8.25918 22.6937 7.812 21.568 7.812C20.4421 7.812 19.3624 8.25924 18.5663 9.05533C17.7702 9.85142 17.323 10.9312 17.323 12.057C17.323 13.1828 17.7702 14.2626 18.5663 15.0587C19.3624 15.8548 20.4421 16.301 21.568 16.301Z" fill="white"/>
<path d="M11 15C11.7956 15 12.5587 14.6839 13.1213 14.1213C13.6839 13.5587 14 12.7956 14 12C14 11.2044 13.6839 10.4413 13.1213 9.87868C12.5587 9.31607 11.7956 9 11 9C10.2044 9 9.44129 9.31607 8.87868 9.87868C8.31607 10.4413 8 11.2044 8 12C8 12.7956 8.31607 13.5587 8.87868 14.1213C9.44129 14.6839 10.2044 15 11 15ZM21 15C21.7956 15 22.5587 14.6839 23.1213 14.1213C23.6839 13.5587 24 12.7956 24 12C24 11.2044 23.6839 10.4413 23.1213 9.87868C22.5587 9.31607 21.7956 9 21 9C20.2044 9 19.4413 9.31607 18.8787 9.87868C18.3161 10.4413 18 11.2044 18 12C18 12.7956 18.3161 13.5587 18.8787 14.1213C19.4413 14.6839 20.2044 15 21 15Z" fill="#402A32"/>
</svg>
