<svg width="32" height="32" viewBox="0 0 32 32" fill="none" xmlns="http://www.w3.org/2000/svg">
<path d="M17.061 2.602C17.5943 2.21005 18.2391 1.9991 18.901 2C20.612 2 22 3.361 22 5.038V6H24V5.5C24 4.83696 24.2634 4.20108 24.7322 3.73224C25.2011 3.26339 25.837 3 26.5 3C28.5 3 31 4 31 8C31 11.2 28 12.667 26.5 13C22.167 12.667 14.6 12 19 12H13C17.4 12 9.833 12.667 5.5 13C4 12.667 1 11.2 1 8C1 4 3.5 3 5.5 3C6.16304 3 6.79893 3.26339 7.26777 3.73224C7.73661 4.20108 8 4.83696 8 5.5V6H10V5.038C10 3.361 11.388 2 13.098 2C13.792 2 14.426 2.227 14.938 2.602C15.2228 2.87737 15.6034 3.0313 15.9995 3.0313C16.3956 3.0313 16.7762 2.87737 17.061 2.602Z" fill="#6D4534"/>
<path d="M7.274 10.228C9.214 11.147 12.074 12 16 12C19.926 12 22.786 11.146 24.726 10.228C26.91 12.42 28 15.54 28 19C28 25.632 23.997 31 16 31C8.003 31 4 25.632 4 19C4 15.536 5.092 12.418 7.274 10.228Z" fill="#FFB02E"/>
<path d="M15 14.5C15 15.4283 14.6313 16.3185 13.9749 16.9749C13.3185 17.6313 12.4283 18 11.5 18C10.5717 18 9.6815 17.6313 9.02513 16.9749C8.36875 16.3185 8 15.4283 8 14.5C8 13.5717 8.36875 12.6815 9.02513 12.0251C9.6815 11.3687 10.5717 11 11.5 11C12.4283 11 13.3185 11.3687 13.9749 12.0251C14.6313 12.6815 15 13.5717 15 14.5ZM24 14.5C24 15.4283 23.6313 16.3185 22.9749 16.9749C22.3185 17.6313 21.4283 18 20.5 18C19.5717 18 18.6815 17.6313 18.0251 16.9749C17.3687 16.3185 17 15.4283 17 14.5C17 13.5717 17.3687 12.6815 18.0251 12.0251C18.6815 11.3687 19.5717 11 20.5 11C21.4283 11 22.3185 11.3687 22.9749 12.0251C23.6313 12.6815 24 13.5717 24 14.5Z" fill="white"/>
<path d="M14.5 15C14.5 15.663 14.2366 16.2989 13.7678 16.7678C13.2989 17.2366 12.663 17.5 12 17.5C11.337 17.5 10.7011 17.2366 10.2322 16.7678C9.76339 16.2989 9.5 15.663 9.5 15C9.5 14.337 9.76339 13.7011 10.2322 13.2322C10.7011 12.7634 11.337 12.5 12 12.5C12.663 12.5 13.2989 12.7634 13.7678 13.2322C14.2366 13.7011 14.5 14.337 14.5 15ZM22.5 15C22.5 15.663 22.2366 16.2989 21.7678 16.7678C21.2989 17.2366 20.663 17.5 20 17.5C19.337 17.5 18.7011 17.2366 18.2322 16.7678C17.7634 16.2989 17.5 15.663 17.5 15C17.5 14.337 17.7634 13.7011 18.2322 13.2322C18.7011 12.7634 19.337 12.5 20 12.5C20.663 12.5 21.2989 12.7634 21.7678 13.2322C22.2366 13.7011 22.5 14.337 22.5 15Z" fill="#402A32"/>
<path d="M24 6H8.00004V7C7.88404 8.157 8.21804 10.116 9.90404 11.207C11.552 11.674 13.572 12 16 12C18.428 12 20.448 11.674 22.095 11.207C23.782 10.117 24.115 8.157 24 7V6Z" fill="#8C5543"/>
<path d="M10 5H22V6H10V5Z" fill="#A56953"/>
<path d="M16 28C8 28 8 20 8 20H24C24 20 24 28 16 28Z" fill="#BB1D80"/>
<path d="M9 20.5V20H23V20.5C23 20.7652 22.8946 21.0196 22.7071 21.2071C22.5196 21.3946 22.2652 21.5 22 21.5H10C9.73478 21.5 9.48043 21.3946 9.29289 21.2071C9.10536 21.0196 9 20.7652 9 20.5Z" fill="white"/>
</svg>
