<svg width="32" height="32" viewBox="0 0 32 32" fill="none" xmlns="http://www.w3.org/2000/svg">
<path d="M15.999 29.998C25.333 29.998 29.998 23.73 29.998 15.998C29.998 8.268 25.333 2 15.998 2C6.665 2 2 8.268 2 15.999C2 23.73 6.664 29.998 15.999 29.998Z" fill="#FFB02E"/>
<path d="M15 10.5C15 11.176 14.8477 11.8433 14.5544 12.4523C14.2612 13.0613 13.8345 13.5965 13.306 14.018C12.503 13.748 11.476 13.5 10.5 13.5C9.523 13.5 8.497 13.748 7.694 14.018C7.09877 13.5432 6.63373 12.9252 6.34242 12.2218C6.0511 11.5183 5.94303 10.7525 6.02833 9.99587C6.11362 9.23928 6.38949 8.51671 6.83012 7.89578C7.27074 7.27485 7.8617 6.77587 8.5477 6.44555C9.23369 6.11523 9.99228 5.96437 10.7525 6.00708C11.5126 6.0498 12.2496 6.28469 12.8942 6.68979C13.5389 7.09488 14.0702 7.65692 14.4385 8.3233C14.8068 8.98969 15 9.73862 15 10.5ZM26 10.5C26 11.176 25.8477 11.8433 25.5544 12.4523C25.2612 13.0613 24.8345 13.5965 24.306 14.018C23.503 13.748 22.476 13.5 21.5 13.5C20.523 13.5 19.497 13.748 18.694 14.018C18.0988 13.5432 17.6337 12.9252 17.3424 12.2218C17.0511 11.5183 16.943 10.7525 17.0283 9.99587C17.1136 9.23928 17.3895 8.51671 17.8301 7.89578C18.2707 7.27485 18.8617 6.77587 19.5477 6.44555C20.2337 6.11523 20.9923 5.96437 21.7525 6.00708C22.5126 6.0498 23.2496 6.28469 23.8942 6.68979C24.5389 7.09488 25.0702 7.65692 25.4385 8.3233C25.8068 8.98969 26 9.73862 26 10.5Z" fill="white"/>
<path d="M11 13C11.7956 13 12.5587 12.6839 13.1213 12.1213C13.6839 11.5587 14 10.7956 14 10C14 9.20435 13.6839 8.44129 13.1213 7.87868C12.5587 7.31607 11.7956 7 11 7C10.2044 7 9.44129 7.31607 8.87868 7.87868C8.31607 8.44129 8 9.20435 8 10C8 10.7956 8.31607 11.5587 8.87868 12.1213C9.44129 12.6839 10.2044 13 11 13ZM21 13C21.7956 13 22.5587 12.6839 23.1213 12.1213C23.6839 11.5587 24 10.7956 24 10C24 9.20435 23.6839 8.44129 23.1213 7.87868C22.5587 7.31607 21.7956 7 21 7C20.2044 7 19.4413 7.31607 18.8787 7.87868C18.3161 8.44129 18 9.20435 18 10C18 10.7956 18.3161 11.5587 18.8787 12.1213C19.4413 12.6839 20.2044 13 21 13Z" fill="#402A32"/>
<path d="M16 25C7 25 7 16 7 16H25C25 16 25 25 16 25Z" fill="#BB1D80"/>
<path d="M8 16.5V16H24V16.5C24 16.7652 23.8946 17.0196 23.7071 17.2071C23.5196 17.3946 23.2652 17.5 23 17.5H9C8.73478 17.5 8.48043 17.3946 8.29289 17.2071C8.10536 17.0196 8 16.7652 8 16.5Z" fill="white"/>
</svg>
