<svg width="32" height="32" viewBox="0 0 32 32" fill="none" xmlns="http://www.w3.org/2000/svg">
<path d="M15.999 29.998C25.333 29.998 29.998 23.73 29.998 15.998C29.998 8.268 25.333 2 15.998 2C6.665 2 2 8.268 2 15.999C2 23.73 6.664 29.998 15.999 29.998Z" fill="#FFB02E"/>
<path d="M9.44705 8.106C9.32918 8.04243 9.19973 8.00319 9.0664 7.99061C8.93307 7.97802 8.79857 7.99234 8.67088 8.03272C8.54319 8.0731 8.42491 8.13872 8.32307 8.22569C8.22122 8.31265 8.13788 8.41918 8.07799 8.53897C8.01809 8.65875 7.98287 8.78934 7.97441 8.923C7.96595 9.05666 7.98442 9.19065 8.02873 9.31703C8.07304 9.44341 8.14228 9.5596 8.23235 9.65872C8.32242 9.75783 8.43148 9.83784 8.55305 9.894L10.7631 11L8.55305 12.105C8.31568 12.2236 8.13513 12.4315 8.05112 12.6832C7.9671 12.9349 7.9865 13.2096 8.10505 13.447C8.2236 13.6844 8.4316 13.8649 8.68327 13.9489C8.93494 14.033 9.20968 14.0136 9.44705 13.895L13.4471 11.895C13.6135 11.8121 13.7535 11.6844 13.8513 11.5263C13.9492 11.3682 14.001 11.1859 14.001 11C14.001 10.8141 13.9492 10.6318 13.8513 10.4737C13.7535 10.3156 13.6135 10.1879 13.4471 10.105L9.44705 8.106ZM22.5531 8.106C22.6709 8.04243 22.8004 8.00319 22.9337 7.99061C23.067 7.97802 23.2015 7.99234 23.3292 8.03272C23.4569 8.0731 23.5752 8.13872 23.677 8.22569C23.7789 8.31265 23.8622 8.41918 23.9221 8.53897C23.982 8.65875 24.0172 8.78934 24.0257 8.923C24.0342 9.05666 24.0157 9.19065 23.9714 9.31703C23.9271 9.44341 23.8578 9.5596 23.7678 9.65872C23.6777 9.75783 23.5686 9.83784 23.4471 9.894L21.2371 11L23.4471 12.105C23.6844 12.2236 23.865 12.4315 23.949 12.6832C24.033 12.9349 24.0136 13.2096 23.8951 13.447C23.7765 13.6844 23.5685 13.8649 23.3168 13.9489C23.0652 14.033 22.7904 14.0136 22.5531 13.895L18.5531 11.895C18.3866 11.8121 18.2467 11.6844 18.1488 11.5263C18.051 11.3682 17.9991 11.1859 17.9991 11C17.9991 10.8141 18.051 10.6318 18.1488 10.4737C18.2467 10.3156 18.3866 10.1879 18.5531 10.105L22.5531 8.106Z" fill="#402A32"/>
<path d="M16 26C6 26 6 16 6 16H26C26 16 26 26 16 26Z" fill="#BB1D80"/>
<path d="M23.5 17.5H8.5C8.10218 17.5 7.72064 17.342 7.43934 17.0607C7.15804 16.7794 7 16.3978 7 16H25C25 16.3978 24.842 16.7794 24.5607 17.0607C24.2794 17.342 23.8978 17.5 23.5 17.5Z" fill="white"/>
</svg>
