<svg width="32" height="32" viewBox="0 0 32 32" fill="none" xmlns="http://www.w3.org/2000/svg">
<path d="M15.999 29.998C25.333 29.998 29.998 23.73 29.998 15.998C29.998 8.268 25.333 2 15.998 2C6.665 2 2 8.268 2 15.999C2 23.73 6.664 29.998 15.999 29.998Z" fill="#F8312F"/>
<path d="M10.5 19C11.6935 19 12.8381 18.5259 13.682 17.682C14.5259 16.8381 15 15.6935 15 14.5C15 13.3065 14.5259 12.1619 13.682 11.318C12.8381 10.4741 11.6935 10 10.5 10C9.30653 10 8.16193 10.4741 7.31802 11.318C6.47411 12.1619 6 13.3065 6 14.5C6 15.6935 6.47411 16.8381 7.31802 17.682C8.16193 18.5259 9.30653 19 10.5 19ZM21.5 19C22.6935 19 23.8381 18.5259 24.682 17.682C25.5259 16.8381 26 15.6935 26 14.5C26 13.3065 25.5259 12.1619 24.682 11.318C23.8381 10.4741 22.6935 10 21.5 10C20.3065 10 19.1619 10.4741 18.318 11.318C17.4741 12.1619 17 13.3065 17 14.5C17 15.6935 17.4741 16.8381 18.318 17.682C19.1619 18.5259 20.3065 19 21.5 19Z" fill="white"/>
<path d="M14.999 11.29C15.0042 11.1916 14.99 11.093 14.9572 11.0001C14.9243 10.9071 14.8735 10.8216 14.8075 10.7483C14.7416 10.675 14.6618 10.6155 14.5729 10.573C14.4839 10.5306 14.3874 10.5061 14.2889 10.501C13.4609 10.457 12.785 10.26 12.25 9.888C11.723 9.521 11.271 8.94 10.961 8.012C10.9315 7.91639 10.8833 7.82764 10.819 7.75097C10.7548 7.67429 10.6758 7.61124 10.5869 7.56553C10.4979 7.51982 10.4007 7.49237 10.3009 7.4848C10.2012 7.47722 10.1009 7.48968 10.0061 7.52143C9.91121 7.55318 9.82366 7.60359 9.74858 7.66969C9.67349 7.73578 9.61239 7.81623 9.56886 7.9063C9.52534 7.99636 9.50027 8.09423 9.49513 8.19413C9.48999 8.29403 9.50489 8.39394 9.53895 8.488C9.93295 9.668 10.5579 10.537 11.3929 11.118C12.2209 11.695 13.193 11.945 14.21 11.999C14.3084 12.0043 14.4069 11.9901 14.4999 11.9572C14.5928 11.9244 14.6784 11.8735 14.7516 11.8076C14.8249 11.7416 14.8845 11.6619 14.9269 11.5729C14.9694 11.4839 14.9938 11.3874 14.999 11.289M17.0009 11.29C16.9957 11.1916 17.0099 11.0932 17.0426 11.0003C17.0754 10.9074 17.1262 10.8219 17.192 10.7486C17.2579 10.6754 17.3375 10.6158 17.4264 10.5733C17.5152 10.5308 17.6116 10.5062 17.7099 10.501C18.5399 10.457 19.215 10.26 19.75 9.888C20.276 9.521 20.7279 8.94 21.0389 8.012C21.0684 7.91639 21.1166 7.82764 21.1809 7.75097C21.2451 7.67429 21.3241 7.61124 21.413 7.56553C21.502 7.51982 21.5992 7.49237 21.699 7.4848C21.7987 7.47722 21.899 7.48968 21.9938 7.52143C22.0887 7.55318 22.1762 7.60359 22.2513 7.66969C22.3264 7.73578 22.3875 7.81623 22.431 7.9063C22.4746 7.99636 22.4996 8.09423 22.5048 8.19413C22.5099 8.29403 22.495 8.39394 22.461 8.488C22.067 9.668 21.442 10.537 20.607 11.118C19.779 11.695 18.807 11.945 17.79 11.999C17.6915 12.0043 17.593 11.9901 17.5 11.9572C17.4071 11.9244 17.3215 11.8735 17.2483 11.8076C17.175 11.7416 17.1154 11.6619 17.073 11.5729C17.0305 11.4839 17.0061 11.3874 17.0009 11.289M14 15C14 15.5304 13.7892 16.0391 13.4142 16.4142C13.0391 16.7893 12.5304 17 12 17C11.4695 17 10.9608 16.7893 10.5857 16.4142C10.2107 16.0391 9.99995 15.5304 9.99995 15C9.99995 14.4696 10.2107 13.9609 10.5857 13.5858C10.9608 13.2107 11.4695 13 12 13C12.5304 13 13.0391 13.2107 13.4142 13.5858C13.7892 13.9609 14 14.4696 14 15ZM22 15C22 15.5304 21.7892 16.0391 21.4142 16.4142C21.0391 16.7893 20.5304 17 20 17C19.4695 17 18.9608 16.7893 18.5857 16.4142C18.2107 16.0391 18 15.5304 18 15C18 14.4696 18.2107 13.9609 18.5857 13.5858C18.9608 13.2107 19.4695 13 20 13C20.5304 13 21.0391 13.2107 21.4142 13.5858C21.7892 13.9609 22 14.4696 22 15Z" fill="#402A32"/>
<path d="M7 21.5C7 21.1022 7.15804 20.7206 7.43934 20.4393C7.72064 20.158 8.10218 20 8.5 20H23.5C23.8978 20 24.2794 20.158 24.5607 20.4393C24.842 20.7206 25 21.1022 25 21.5V27.5C25 27.8978 24.842 28.2794 24.5607 28.5607C24.2794 28.842 23.8978 29 23.5 29H8.5C8.10218 29 7.72064 28.842 7.43934 28.5607C7.15804 28.2794 7 27.8978 7 27.5V21.5Z" fill="#533566"/>
<path d="M12.176 22.032C12.3001 22.0787 12.4006 22.1728 12.4554 22.2935C12.5101 22.4143 12.5147 22.5519 12.468 22.676L12.347 23H13.778L14.032 22.325C14.0818 22.2056 14.176 22.1102 14.2947 22.0588C14.4134 22.0073 14.5474 22.0039 14.6686 22.0492C14.7897 22.0945 14.8886 22.185 14.9445 22.3017C15.0003 22.4184 15.0087 22.5522 14.968 22.675L14.847 23H15C15.1326 23 15.2598 23.0527 15.3536 23.1464C15.4473 23.2402 15.5 23.3674 15.5 23.5C15.5 23.6326 15.4473 23.7598 15.3536 23.8536C15.2598 23.9473 15.1326 24 15 24H14.472L14.097 25H14.5C14.6326 25 14.7598 25.0527 14.8536 25.1464C14.9473 25.2402 15 25.3674 15 25.5C15 25.6326 14.9473 25.7598 14.8536 25.8536C14.7598 25.9473 14.6326 26 14.5 26H13.722L13.468 26.676C13.419 26.7968 13.3248 26.8936 13.2055 26.946C13.0862 26.9983 12.9511 27.002 12.8291 26.9563C12.7071 26.9105 12.6077 26.8189 12.5523 26.701C12.4968 26.5831 12.4895 26.4482 12.532 26.325L12.653 26H11.222L10.968 26.676C10.919 26.7968 10.8248 26.8936 10.7055 26.946C10.5862 26.9983 10.4511 27.002 10.3291 26.9563C10.2071 26.9105 10.1077 26.8189 10.0523 26.701C9.99676 26.5831 9.9895 26.4482 10.032 26.325L10.153 26H10C9.86739 26 9.74021 25.9473 9.64645 25.8536C9.55268 25.7598 9.5 25.6326 9.5 25.5C9.5 25.3674 9.55268 25.2402 9.64645 25.1464C9.74021 25.0527 9.86739 25 10 25H10.528L10.903 24H10.5C10.3674 24 10.2402 23.9473 10.1464 23.8536C10.0527 23.7598 10 23.6326 10 23.5C10 23.3674 10.0527 23.2402 10.1464 23.1464C10.2402 23.0527 10.3674 23 10.5 23H11.278L11.532 22.325C11.555 22.2635 11.5899 22.207 11.6348 22.159C11.6796 22.111 11.7335 22.0722 11.7933 22.045C11.8531 22.0178 11.9177 22.0026 11.9833 22.0004C12.049 21.9982 12.1145 22.0089 12.176 22.032ZM13.403 24H11.972L11.597 25H13.028L13.403 24ZM18.968 22.676C19.0105 22.5528 19.0032 22.4179 18.9477 22.3C18.8923 22.1821 18.7929 22.0905 18.6709 22.0447C18.5489 21.999 18.4138 22.0027 18.2945 22.055C18.1752 22.1074 18.081 22.2042 18.032 22.325L16.532 26.325C16.4913 26.4478 16.4997 26.5816 16.5555 26.6983C16.6114 26.815 16.7103 26.9055 16.8314 26.9508C16.9526 26.9961 17.0866 26.9927 17.2053 26.9412C17.324 26.8898 17.4182 26.7944 17.468 26.675L18.968 22.676ZM19 27C19.1326 27 19.2598 26.9473 19.3536 26.8536C19.4473 26.7598 19.5 26.6326 19.5 26.5C19.5 26.3674 19.4473 26.2402 19.3536 26.1464C19.2598 26.0527 19.1326 26 19 26C18.8674 26 18.7402 26.0527 18.6464 26.1464C18.5527 26.2402 18.5 26.3674 18.5 26.5C18.5 26.6326 18.5527 26.7598 18.6464 26.8536C18.7402 26.9473 18.8674 27 19 27ZM22 22.5C22 22.3674 21.9473 22.2402 21.8536 22.1464C21.7598 22.0527 21.6326 22 21.5 22C21.3674 22 21.2402 22.0527 21.1464 22.1464C21.0527 22.2402 21 22.3674 21 22.5V24.5C21 24.6326 21.0527 24.7598 21.1464 24.8536C21.2402 24.9473 21.3674 25 21.5 25C21.6326 25 21.7598 24.9473 21.8536 24.8536C21.9473 24.7598 22 24.6326 22 24.5V22.5ZM16.5 23C16.6326 23 16.7598 22.9473 16.8536 22.8536C16.9473 22.7598 17 22.6326 17 22.5C17 22.3674 16.9473 22.2402 16.8536 22.1464C16.7598 22.0527 16.6326 22 16.5 22C16.3674 22 16.2402 22.0527 16.1464 22.1464C16.0527 22.2402 16 22.3674 16 22.5C16 22.6326 16.0527 22.7598 16.1464 22.8536C16.2402 22.9473 16.3674 23 16.5 23ZM22 26.5C22 26.6326 21.9473 26.7598 21.8536 26.8536C21.7598 26.9473 21.6326 27 21.5 27C21.3674 27 21.2402 26.9473 21.1464 26.8536C21.0527 26.7598 21 26.6326 21 26.5C21 26.3674 21.0527 26.2402 21.1464 26.1464C21.2402 26.0527 21.3674 26 21.5 26C21.6326 26 21.7598 26.0527 21.8536 26.1464C21.9473 26.2402 22 26.3674 22 26.5Z" fill="white"/>
</svg>
