<svg width="32" height="32" viewBox="0 0 32 32" fill="none" xmlns="http://www.w3.org/2000/svg">
<path d="M15.999 29.998C25.333 29.998 29.998 23.73 29.998 15.998C29.998 8.268 25.333 2 15.998 2C6.665 2 2 8.268 2 15.999C2 23.73 6.664 29.998 15.999 29.998Z" fill="#FFB02E"/>
<path d="M13.958 17.38C14.5054 16.7229 14.8542 15.9234 14.9635 15.0752C15.0729 14.227 14.9383 13.3652 14.5755 12.5907C14.2127 11.8163 13.6367 11.1612 12.915 10.7024C12.1932 10.2435 11.3557 9.99979 10.5005 9.99979C9.64526 9.99979 8.80773 10.2435 8.08603 10.7024C7.36432 11.1612 6.78832 11.8163 6.42551 12.5907C6.06269 13.3652 5.92807 14.227 6.03743 15.0752C6.14679 15.9234 6.4956 16.7229 7.04299 17.38C7.46199 17.17 7.98899 16.945 8.58999 16.776C9.16999 16.612 10.5 16 10.5 16C10.5 16 12.435 16.744 13.183 17.035C13.469 17.147 13.73 17.265 13.958 17.38Z" fill="white"/>
<path d="M6.97408 9.658C7.11808 9.228 7.47608 8.55 8.06908 7.988C8.65408 7.433 9.45208 7 10.5001 7C10.6327 7 10.7599 6.94732 10.8536 6.85355C10.9474 6.75979 11.0001 6.63261 11.0001 6.5C11.0001 6.36739 10.9474 6.24021 10.8536 6.14645C10.7599 6.05268 10.6327 6 10.5001 6C9.14908 6 8.11408 6.567 7.38208 7.262C6.65808 7.95 6.21608 8.772 6.02708 9.342C5.99087 9.46615 6.00417 9.5995 6.06419 9.71405C6.12421 9.8286 6.22628 9.91545 6.34897 9.95634C6.47165 9.99724 6.60541 9.98901 6.72216 9.93338C6.83891 9.87775 6.92856 9.77905 6.97408 9.658ZM21.0001 8.5C21.0001 8.36739 21.0528 8.24021 21.1465 8.14645C21.2403 8.05268 21.3675 8 21.5001 8C22.2741 8 23.2421 8.284 24.0851 8.83C24.9331 9.38 25.6971 10.226 25.9851 11.379C26.0138 11.5064 25.9914 11.64 25.9229 11.7512C25.8543 11.8623 25.745 11.9423 25.6183 11.9739C25.4916 12.0055 25.3575 11.9863 25.2448 11.9203C25.1321 11.8544 25.0496 11.747 25.0151 11.621C24.8031 10.774 24.2341 10.119 23.5401 9.669C22.8401 9.216 22.0601 9 21.5001 9C21.3675 9 21.2403 8.94732 21.1465 8.85355C21.0528 8.75979 21.0001 8.63261 21.0001 8.5ZM14.0001 15C13.9999 15.7572 13.7134 16.4863 13.1981 17.041C12.4481 16.747 11.5151 16.5 10.5001 16.5C9.81308 16.5 9.16408 16.613 8.58308 16.778C8.30223 16.396 8.11591 15.9529 8.0394 15.485C7.96289 15.0171 7.99837 14.5378 8.14292 14.0862C8.28748 13.6347 8.53699 13.2238 8.87101 12.8874C9.20503 12.5509 9.61404 12.2984 10.0645 12.1505C10.515 12.0027 10.9941 11.9637 11.4625 12.0367C11.931 12.1098 12.3754 12.2929 12.7594 12.5709C13.1435 12.849 13.4561 13.2141 13.6718 13.6363C13.8874 14.0586 13.9999 14.5259 14.0001 15ZM18.9701 15.243C19.0481 14.93 19.5451 14 21.0001 14C22.4551 14 22.9521 14.931 23.0301 15.242C23.0601 15.3713 23.1155 15.4934 23.1932 15.6011C23.2708 15.7088 23.3692 15.7999 23.4824 15.8692C23.5957 15.9385 23.7216 15.9845 23.8528 16.0046C23.984 16.0247 24.118 16.0185 24.2468 15.9863C24.3756 15.9541 24.4967 15.8965 24.603 15.817C24.7093 15.7376 24.7988 15.6377 24.8661 15.5233C24.9334 15.4088 24.9773 15.2821 24.9952 15.1506C25.013 15.019 25.0045 14.8852 24.9701 14.757C24.7151 13.736 23.5451 12 21.0001 12C18.4551 12 17.2851 13.735 17.0301 14.758C16.9957 14.8862 16.9872 15.02 17.005 15.1516C17.0229 15.2831 17.0667 15.4098 17.1341 15.5243C17.2014 15.6387 17.2908 15.7386 17.3972 15.818C17.5035 15.8975 17.6246 15.9551 17.7534 15.9873C17.8822 16.0195 18.0161 16.0257 18.1473 16.0056C18.2786 15.9855 18.4045 15.9395 18.5177 15.8702C18.631 15.8009 18.7293 15.7098 18.807 15.6021C18.8847 15.4944 18.9401 15.3723 18.9701 15.243ZM16.6701 17.92C16.4049 17.92 16.1505 18.0254 15.963 18.2129C15.7754 18.4004 15.6701 18.6548 15.6701 18.92C15.6701 19.1852 15.7754 19.4396 15.963 19.6271C16.1505 19.8146 16.4049 19.92 16.6701 19.92C16.808 19.92 16.9403 19.9748 17.0378 20.0723C17.1353 20.1698 17.1901 20.3021 17.1901 20.44C17.1901 20.5779 17.1353 20.7102 17.0378 20.8077C16.9403 20.9052 16.808 20.96 16.6701 20.96C16.4049 20.96 16.1505 21.0654 15.963 21.2529C15.7754 21.4404 15.6701 21.6948 15.6701 21.96C15.6701 22.2252 15.7754 22.4796 15.963 22.6671C16.1505 22.8546 16.4049 22.96 16.6701 22.96C16.808 22.96 16.9403 23.0148 17.0378 23.1123C17.1353 23.2098 17.1901 23.3421 17.1901 23.48C17.1901 23.6179 17.1353 23.7502 17.0378 23.8477C16.9403 23.9452 16.808 24 16.6701 24C16.4049 24 16.1505 24.1054 15.963 24.2929C15.7754 24.4804 15.6701 24.7348 15.6701 25C15.6701 25.2652 15.7754 25.5196 15.963 25.7071C16.1505 25.8946 16.4049 26 16.6701 26C17.1389 26 17.5985 25.8692 17.9971 25.6223C18.3956 25.3755 18.7174 25.0223 18.9263 24.6025C19.1351 24.1827 19.2227 23.713 19.1792 23.2462C19.1357 22.7794 18.9629 22.334 18.6801 21.96C18.9629 21.586 19.1357 21.1406 19.1792 20.6738C19.2227 20.207 19.1351 19.7373 18.9263 19.3175C18.7174 18.8977 18.3956 18.5445 17.9971 18.2977C17.5985 18.0508 17.1389 17.92 16.6701 17.92Z" fill="#402A32"/>
<path d="M23.7421 26.57C24.8391 26.552 26.7411 26.338 28.4791 25.231C31.1721 23.517 30.2891 19.649 26.2591 20.255C25.4831 17.339 21.4611 17.132 21.0681 20.271C20.8041 22.373 21.7581 24.586 22.3611 25.735C22.4907 25.9887 22.6885 26.2012 22.9323 26.3486C23.1761 26.4959 23.4562 26.5723 23.7411 26.569" fill="#F70A8D"/>
</svg>
