<svg width="32" height="32" viewBox="0 0 32 32" fill="none" xmlns="http://www.w3.org/2000/svg">
<g clip-path="url(#clip0_250_300)">
<mask id="mask0_250_300" style="mask-type:luminance" maskUnits="userSpaceOnUse" x="0" y="0" width="32" height="32">
<path d="M0 0H32V32H0V0Z" fill="white"/>
</mask>
<g mask="url(#mask0_250_300)">
<path d="M15.999 29.998C25.333 29.998 29.998 23.73 29.998 15.998C29.998 8.268 25.333 2 15.998 2C6.665 2 2 8.268 2 15.999C2 23.73 6.664 29.998 15.999 29.998Z" fill="#FFB02E"/>
<path d="M15.97 22.92C16.5004 22.92 17.0091 22.7093 17.3842 22.3342C17.7593 21.9591 17.97 21.4504 17.97 20.92C17.97 20.3896 17.7593 19.8809 17.3842 19.5058C17.0091 19.1307 16.5004 18.92 15.97 18.92C15.4395 18.92 14.9308 19.1307 14.5558 19.5058C14.1807 19.8809 13.97 20.3896 13.97 20.92C13.97 21.4504 14.1807 21.9591 14.5558 22.3342C14.9308 22.7093 15.4395 22.92 15.97 22.92Z" fill="#BB1D80"/>
<path d="M15 21C15 20.7348 15.1054 20.4804 15.2929 20.2929C15.4804 20.1054 15.7348 20 16 20C16.2652 20 16.5196 20.1054 16.7071 20.2929C16.8946 20.4804 17 20.7348 17 21V21.5C17 21.8283 17.0647 22.1534 17.1903 22.4567C17.3159 22.76 17.5001 23.0356 17.7322 23.2678C17.9644 23.4999 18.24 23.6841 18.5433 23.8097C18.8466 23.9353 19.1717 24 19.5 24C20.163 24 20.7989 24.2634 21.2678 24.7322C21.7366 25.2011 22 25.837 22 26.5C22 26.611 21.844 26.623 21.8 26.52H10.2C10.156 26.623 10 26.611 10 26.5C10 25.837 10.2634 25.2011 10.7322 24.7322C11.2011 24.2634 11.837 24 12.5 24C12.8283 24 13.1534 23.9353 13.4567 23.8097C13.76 23.6841 14.0356 23.4999 14.2678 23.2678C14.4999 23.0356 14.6841 22.76 14.8097 22.4567C14.9353 22.1534 15 21.8283 15 21.5V21Z" fill="white"/>
<path d="M14.95 27C14.8266 27.6076 14.4819 28.1476 13.9827 28.5153C13.4836 28.883 12.8656 29.0522 12.2488 28.9899C11.6319 28.9275 11.0602 28.6383 10.6447 28.1782C10.2291 27.7181 9.99938 27.12 10 26.5C10 26.611 10.156 26.623 10.2 26.52C10.4135 26.0188 10.7848 25.601 11.2576 25.3302C11.7304 25.0594 12.2786 24.9505 12.819 25.02C13.009 25.044 13.066 25.274 12.943 25.42C13.285 25.716 13.555 25.686 14.027 25.52C14.5024 25.8865 14.83 26.4119 14.95 27ZM22 26.5C22.0006 27.12 21.7709 27.7181 21.3553 28.1782C20.9398 28.6383 20.3681 28.9275 19.7512 28.9899C19.1344 29.0522 18.5164 28.883 18.0173 28.5153C17.5181 28.1476 17.1734 27.6076 17.05 27C17.1703 26.4117 17.4983 25.8864 17.974 25.52C18.414 25.52 18.684 25.42 19.057 25.42C18.934 25.274 18.992 25.044 19.181 25.02C19.2857 25.0067 19.392 25 19.5 25C19.9902 25 20.4695 25.1441 20.8785 25.4143C21.2874 25.6846 21.6079 26.0691 21.8 26.52C21.844 26.623 22 26.611 22 26.5Z" fill="#D3D3D3"/>
<path d="M20 28C20 29.0609 19.5786 30.0783 18.8284 30.8284C18.0783 31.5786 17.0609 32 16 32C14.9391 32 13.9217 31.5786 13.1716 30.8284C12.4214 30.0783 12 29.0609 12 28C12.448 25.776 13.79 24.535 16 24.535C18.21 24.535 19.52 25.791 20 28Z" fill="#C9C9C9"/>
<path d="M19.876 28.008C19.894 28.078 20 28.074 20 28C20 26.9391 19.5786 25.9217 18.8284 25.1716C18.0783 24.4214 17.0609 24 16 24C14.9391 24 13.9217 24.4214 13.1716 25.1716C12.4214 25.9217 12 26.9391 12 28C12 28.074 12.106 28.079 12.124 28.008C12.3451 27.148 12.8459 26.3859 13.5476 25.8418C14.2493 25.2976 15.112 25.0023 16 25.0023C16.888 25.0023 17.7507 25.2976 18.4524 25.8418C19.1541 26.3859 19.6549 27.148 19.876 28.008Z" fill="#F4F4F4"/>
<path d="M8.0699 7.988C7.4759 8.55 7.1179 9.228 6.9739 9.658C6.95506 9.72257 6.9234 9.78267 6.8808 9.83472C6.83819 9.88676 6.78553 9.92967 6.72595 9.96089C6.66637 9.9921 6.60111 10.011 6.53407 10.0164C6.46703 10.0218 6.39959 10.0136 6.33578 9.99234C6.27198 9.97107 6.21312 9.93715 6.16273 9.8926C6.11234 9.84805 6.07145 9.7938 6.04252 9.73308C6.01359 9.67236 5.9972 9.60643 5.99435 9.53923C5.99149 9.47204 6.00222 9.40495 6.0259 9.342C6.2159 8.772 6.6559 7.95 7.3809 7.262C8.1129 6.567 9.1479 6 10.4999 6C10.6325 6 10.7597 6.05268 10.8535 6.14645C10.9472 6.24021 10.9999 6.36739 10.9999 6.5C10.9999 6.63261 10.9472 6.75979 10.8535 6.85355C10.7597 6.94732 10.6325 7 10.4999 7C9.4519 7 8.6539 7.433 8.0699 7.988ZM23.9299 7.988C24.5229 8.55 24.8819 9.228 25.0259 9.658C25.0714 9.77905 25.1621 9.87775 25.2788 9.93338C25.3956 9.98901 25.5293 9.99724 25.652 9.95634C25.7747 9.91545 25.8768 9.8286 25.9368 9.71405C25.9968 9.5995 26.0101 9.46615 25.9739 9.342C25.7839 8.772 25.3429 7.95 24.6189 7.262C23.8869 6.567 22.8519 6 21.4999 6C21.3673 6 21.2401 6.05268 21.1463 6.14645C21.0526 6.24021 20.9999 6.36739 20.9999 6.5C20.9999 6.63261 21.0526 6.75979 21.1463 6.85355C21.2401 6.94732 21.3673 7 21.4999 7C22.5489 7 23.3469 7.433 23.9319 7.988M6.2149 13.38C6.29629 13.2769 6.39721 13.1908 6.51188 13.1267C6.62655 13.0626 6.75273 13.0217 6.88321 13.0064C7.01369 12.9911 7.1459 13.0016 7.27231 13.0374C7.39871 13.0732 7.51683 13.1335 7.6199 13.215C8.2839 13.74 8.9099 14 9.9999 14C11.0979 14 11.7499 13.729 12.3679 13.225C12.5734 13.0574 12.8371 12.9783 13.101 13.0051C13.3649 13.0319 13.6073 13.1625 13.7749 13.368C13.9425 13.5735 14.0216 13.8373 13.9948 14.1011C13.968 14.365 13.8374 14.6074 13.6319 14.775C12.6399 15.585 11.5339 16 9.9999 16C8.4579 16 7.3959 15.587 6.3799 14.785C6.27677 14.7036 6.1907 14.6027 6.12659 14.488C6.06249 14.3733 6.02161 14.2472 6.00628 14.1167C5.99096 13.9862 6.0015 13.854 6.03729 13.7276C6.07309 13.6012 6.13344 13.4831 6.2149 13.38ZM18.2149 13.38C18.2963 13.2769 18.3972 13.1908 18.5119 13.1267C18.6266 13.0626 18.7527 13.0217 18.8832 13.0064C19.0137 12.9911 19.1459 13.0016 19.2723 13.0374C19.3987 13.0732 19.5168 13.1335 19.6199 13.215C20.2839 13.739 20.9099 14 21.9999 14C23.0979 14 23.7499 13.729 24.3679 13.225C24.5734 13.0574 24.8371 12.9783 25.101 13.0051C25.3649 13.0319 25.6073 13.1625 25.7749 13.368C25.9425 13.5735 26.0216 13.8373 25.9948 14.1011C25.968 14.365 25.8374 14.6074 25.6319 14.775C24.6399 15.585 23.5339 16 21.9999 16C20.4579 16 19.3959 15.587 18.3799 14.785C18.2768 14.7036 18.1907 14.6027 18.1266 14.488C18.0625 14.3733 18.0216 14.2472 18.0063 14.1167C17.991 13.9862 18.0015 13.854 18.0373 13.7276C18.0731 13.6012 18.1334 13.4831 18.2149 13.38Z" fill="#402A32"/>
</g>
</g>
<defs>
<clipPath id="clip0_250_300">
<rect width="32" height="32" fill="white"/>
</clipPath>
</defs>
</svg>
