<svg width="32" height="32" viewBox="0 0 32 32" fill="none" xmlns="http://www.w3.org/2000/svg">
<path d="M15.999 29.998C25.333 29.998 29.998 23.73 29.998 15.998C29.998 8.268 25.333 2 15.998 2C6.665 2 2 8.268 2 15.999C2 23.73 6.664 29.998 15.999 29.998Z" fill="#FFB02E"/>
<path d="M10.42 19.224C10.9777 19.2326 11.5316 19.1302 12.0493 18.9227C12.5671 18.7152 13.0384 18.4068 13.4359 18.0154C13.8333 17.6241 14.149 17.1575 14.3644 16.643C14.5799 16.1285 14.6908 15.5763 14.6908 15.0185C14.6908 14.4607 14.5799 13.9085 14.3644 13.394C14.149 12.8795 13.8333 12.4129 13.4359 12.0216C13.0384 11.6302 12.5671 11.3218 12.0493 11.1143C11.5316 10.9068 10.9777 10.8044 10.42 10.813C9.31582 10.83 8.26267 11.2806 7.48788 12.0674C6.71308 12.8543 6.27881 13.9142 6.27881 15.0185C6.27881 16.1228 6.71308 17.1827 7.48788 17.9696C8.26267 18.7564 9.31582 19.207 10.42 19.224ZM21.568 19.301C22.1254 19.301 22.6773 19.1912 23.1923 18.9779C23.7072 18.7646 24.1751 18.452 24.5693 18.0578C24.9634 17.6637 25.2761 17.1958 25.4894 16.6808C25.7027 16.1658 25.8125 15.6139 25.8125 15.0565C25.8125 14.4991 25.7027 13.9472 25.4894 13.4322C25.2761 12.9172 24.9634 12.4493 24.5693 12.0552C24.1751 11.661 23.7072 11.3484 23.1923 11.1351C22.6773 10.9218 22.1254 10.812 21.568 10.812C20.4421 10.812 19.3624 11.2592 18.5663 12.0553C17.7702 12.8514 17.323 13.9312 17.323 15.057C17.323 16.1828 17.7702 17.2626 18.5663 18.0587C19.3624 18.8548 20.4421 19.301 21.568 19.301Z" fill="white"/>
<path d="M10.017 6.37C9.827 7.073 9.492 7.725 8.952 8.2C8.419 8.667 7.645 9 6.5 9C6.36739 9 6.24021 9.05268 6.14645 9.14645C6.05268 9.24021 6 9.36739 6 9.5C6 9.63261 6.05268 9.75978 6.14645 9.85355C6.24021 9.94732 6.36739 10 6.5 10C7.855 10 8.873 9.6 9.612 8.951C10.342 8.309 10.758 7.461 10.982 6.631C11.0001 6.56737 11.0053 6.50079 10.9975 6.43511C10.9896 6.36944 10.9688 6.30598 10.9363 6.2484C10.9037 6.19082 10.86 6.14027 10.8078 6.09969C10.7556 6.0591 10.6958 6.02928 10.632 6.01194C10.5682 5.99461 10.5015 5.99012 10.436 5.99872C10.3704 6.00733 10.3072 6.02886 10.25 6.06207C10.1928 6.09528 10.1427 6.13951 10.1027 6.19219C10.0627 6.24488 10.0336 6.30597 10.017 6.37ZM21.983 6.37C22.173 7.073 22.508 7.725 23.048 8.2C23.581 8.667 24.355 9 25.5 9C25.6326 9 25.7598 9.05268 25.8536 9.14645C25.9473 9.24021 26 9.36739 26 9.5C26 9.63261 25.9473 9.75978 25.8536 9.85355C25.7598 9.94732 25.6326 10 25.5 10C24.145 10 23.127 9.6 22.388 8.951C21.658 8.309 21.242 7.461 21.018 6.631C20.9999 6.56737 20.9947 6.50079 21.0025 6.43511C21.0104 6.36944 21.0312 6.30598 21.0637 6.2484C21.0963 6.19082 21.14 6.14027 21.1922 6.09969C21.2444 6.0591 21.3042 6.02928 21.368 6.01194C21.4318 5.99461 21.4985 5.99012 21.564 5.99872C21.6296 6.00733 21.6928 6.02886 21.75 6.06207C21.8072 6.09528 21.8573 6.13951 21.8973 6.19219C21.9373 6.24488 21.9664 6.30597 21.983 6.37ZM16 23C14.714 23 13.986 23.428 13.707 23.707C13.5184 23.8892 13.2658 23.99 13.0036 23.9877C12.7414 23.9854 12.4906 23.8802 12.3052 23.6948C12.1198 23.5094 12.0146 23.2586 12.0123 22.9964C12.01 22.7342 12.1108 22.4816 12.293 22.293C13.013 21.573 14.286 21 16 21C17.64 21 18.981 21.567 19.707 22.293C19.8892 22.4816 19.99 22.7342 19.9877 22.9964C19.9854 23.2586 19.8802 23.5094 19.6948 23.6948C19.5094 23.8802 19.2586 23.9854 18.9964 23.9877C18.7342 23.99 18.4816 23.8892 18.293 23.707C18.019 23.433 17.228 23 16 23ZM14 15C14 15.394 13.9224 15.7841 13.7716 16.148C13.6209 16.512 13.3999 16.8427 13.1213 17.1213C12.8427 17.3999 12.512 17.6209 12.1481 17.7716C11.7841 17.9224 11.394 18 11 18C10.606 18 10.2159 17.9224 9.85195 17.7716C9.48797 17.6209 9.15725 17.3999 8.87868 17.1213C8.6001 16.8427 8.37913 16.512 8.22836 16.148C8.0776 15.7841 8 15.394 8 15C8 14.2043 8.31607 13.4413 8.87868 12.8787C9.44129 12.3161 10.2044 12 11 12C11.7956 12 12.5587 12.3161 13.1213 12.8787C13.6839 13.4413 14 14.2043 14 15ZM24 15C24 15.7956 23.6839 16.5587 23.1213 17.1213C22.5587 17.6839 21.7956 18 21 18C20.2044 18 19.4413 17.6839 18.8787 17.1213C18.3161 16.5587 18 15.7956 18 15C18 14.2043 18.3161 13.4413 18.8787 12.8787C19.4413 12.3161 20.2044 12 21 12C21.7956 12 22.5587 12.3161 23.1213 12.8787C23.6839 13.4413 24 14.2043 24 15Z" fill="#402A32"/>
<path d="M1 19.5C1 18.837 1.26339 18.2011 1.73223 17.7322C2.20107 17.2634 2.83696 17 3.5 17C4.16304 17 4.79893 17.2634 5.26777 17.7322C5.73661 18.2011 6 18.837 6 19.5V23.5C6 24.163 5.73661 24.7989 5.26777 25.2678C4.79893 25.7366 4.16304 26 3.5 26C2.83696 26 2.20107 25.7366 1.73223 25.2678C1.26339 24.7989 1 24.163 1 23.5V19.5Z" fill="#3F5FFF"/>
</svg>
