<svg width="32" height="32" viewBox="0 0 32 32" fill="none" xmlns="http://www.w3.org/2000/svg">
<path d="M15.999 29.998C25.333 29.998 29.998 23.73 29.998 15.998C29.998 8.268 25.333 2 15.998 2C6.665 2 2 8.268 2 15.999C2 23.73 6.664 29.998 15.999 29.998Z" fill="#FFB02E"/>
<path d="M13 24C13 23.2044 13.3161 22.4413 13.8787 21.8787C14.4413 21.3161 15.2044 21 16 21C16.7956 21 17.5587 21.3161 18.1213 21.8787C18.6839 22.4413 19 23.2044 19 24C19 24.7956 18.6839 25.5587 18.1213 26.1213C17.5587 26.6839 16.7956 27 16 27C15.2044 27 14.4413 26.6839 13.8787 26.1213C13.3161 25.5587 13 24.7956 13 24Z" fill="#BB1D80"/>
<path d="M10.5 19C11.6935 19 12.8381 18.5259 13.682 17.682C14.5259 16.8381 15 15.6935 15 14.5C15 13.3065 14.5259 12.1619 13.682 11.318C12.8381 10.4741 11.6935 10 10.5 10C9.30653 10 8.16193 10.4741 7.31802 11.318C6.47411 12.1619 6 13.3065 6 14.5C6 15.6935 6.47411 16.8381 7.31802 17.682C8.16193 18.5259 9.30653 19 10.5 19ZM21.5 19C22.6935 19 23.8381 18.5259 24.682 17.682C25.5259 16.8381 26 15.6935 26 14.5C26 13.3065 25.5259 12.1619 24.682 11.318C23.8381 10.4741 22.6935 10 21.5 10C20.3065 10 19.1619 10.4741 18.318 11.318C17.4741 12.1619 17 13.3065 17 14.5C17 15.6935 17.4741 16.8381 18.318 17.682C19.1619 18.5259 20.3065 19 21.5 19Z" fill="white"/>
<path d="M8.0699 7.988C7.4759 8.55 7.1179 9.228 6.9739 9.658C6.95506 9.72257 6.9234 9.78267 6.8808 9.83472C6.83819 9.88676 6.78553 9.92967 6.72595 9.96089C6.66637 9.9921 6.60111 10.011 6.53407 10.0164C6.46703 10.0218 6.39959 10.0136 6.33578 9.99234C6.27198 9.97107 6.21312 9.93715 6.16273 9.8926C6.11234 9.84805 6.07145 9.7938 6.04252 9.73308C6.01359 9.67236 5.9972 9.60643 5.99435 9.53923C5.99149 9.47204 6.00222 9.40495 6.0259 9.342C6.2159 8.772 6.6559 7.95 7.3809 7.262C8.1129 6.567 9.1479 6 10.4999 6C10.6325 6 10.7597 6.05268 10.8535 6.14645C10.9472 6.24021 10.9999 6.36739 10.9999 6.5C10.9999 6.63261 10.9472 6.75979 10.8535 6.85355C10.7597 6.94732 10.6325 7 10.4999 7C9.4519 7 8.6539 7.433 8.0699 7.988ZM11.9999 17C12.5303 17 13.039 16.7893 13.4141 16.4142C13.7892 16.0391 13.9999 15.5304 13.9999 15C13.9999 14.4696 13.7892 13.9609 13.4141 13.5858C13.039 13.2107 12.5303 13 11.9999 13C11.4695 13 10.9608 13.2107 10.5857 13.5858C10.2106 13.9609 9.9999 14.4696 9.9999 15C9.9999 15.5304 10.2106 16.0391 10.5857 16.4142C10.9608 16.7893 11.4695 17 11.9999 17ZM19.9999 17C20.5303 17 21.039 16.7893 21.4141 16.4142C21.7892 16.0391 21.9999 15.5304 21.9999 15C21.9999 14.4696 21.7892 13.9609 21.4141 13.5858C21.039 13.2107 20.5303 13 19.9999 13C19.4695 13 18.9608 13.2107 18.5857 13.5858C18.2106 13.9609 17.9999 14.4696 17.9999 15C17.9999 15.5304 18.2106 16.0391 18.5857 16.4142C18.9608 16.7893 19.4695 17 19.9999 17ZM25.0259 9.658C24.8819 9.228 24.5229 8.55 23.9309 7.988C23.3459 7.433 22.5479 7 21.4999 7C21.3673 7 21.2401 6.94732 21.1463 6.85355C21.0526 6.75979 20.9999 6.63261 20.9999 6.5C20.9999 6.36739 21.0526 6.24021 21.1463 6.14645C21.2401 6.05268 21.3673 6 21.4999 6C22.8519 6 23.8869 6.567 24.6199 7.262C25.3429 7.95 25.7839 8.772 25.9739 9.342C25.9976 9.40495 26.0083 9.47204 26.0054 9.53923C26.0026 9.60643 25.9862 9.67236 25.9573 9.73308C25.9283 9.7938 25.8875 9.84805 25.8371 9.8926C25.7867 9.93715 25.7278 9.97107 25.664 9.99234C25.6002 10.0136 25.5328 10.0218 25.4657 10.0164C25.3987 10.011 25.3334 9.9921 25.2738 9.96089C25.2143 9.92967 25.1616 9.88676 25.119 9.83472C25.0764 9.78267 25.0447 9.72257 25.0259 9.658Z" fill="#402A32"/>
</svg>
