<svg width="32" height="32" viewBox="0 0 32 32" fill="none" xmlns="http://www.w3.org/2000/svg">
<path d="M15.999 29.998C25.333 29.998 29.998 23.73 29.998 15.998C29.998 8.268 25.333 2 15.998 2C6.665 2 2 8.268 2 15.999C2 23.73 6.664 29.998 15.999 29.998Z" fill="#FFB02E"/>
<path d="M10.5 19C11.6935 19 12.8381 18.5259 13.682 17.682C14.5259 16.8381 15 15.6935 15 14.5C15 13.3065 14.5259 12.1619 13.682 11.318C12.8381 10.4741 11.6935 10 10.5 10C9.30653 10 8.16193 10.4741 7.31802 11.318C6.47411 12.1619 6 13.3065 6 14.5C6 15.6935 6.47411 16.8381 7.31802 17.682C8.16193 18.5259 9.30653 19 10.5 19ZM21.5 19C22.6935 19 23.8381 18.5259 24.682 17.682C25.5259 16.8381 26 15.6935 26 14.5C26 13.3065 25.5259 12.1619 24.682 11.318C23.8381 10.4741 22.6935 10 21.5 10C20.3065 10 19.1619 10.4741 18.318 11.318C17.4741 12.1619 17 13.3065 17 14.5C17 15.6935 17.4741 16.8381 18.318 17.682C19.1619 18.5259 20.3065 19 21.5 19Z" fill="white"/>
<path d="M10.993 5.582C11.006 5.51634 11.0056 5.44874 10.992 5.38322C10.9783 5.3177 10.9517 5.25558 10.9136 5.20055C10.8755 5.14552 10.8267 5.0987 10.7702 5.06286C10.7137 5.02702 10.6505 5.0029 10.5845 4.99191C10.5185 4.98093 10.4509 4.98332 10.3858 4.99893C10.3208 5.01454 10.2595 5.04306 10.2056 5.08279C10.1518 5.12253 10.1064 5.17267 10.0723 5.23025C10.0382 5.28783 10.016 5.35168 10.007 5.418C9.837 6.438 9.244 7.072 8.543 7.464C7.91503 7.8044 7.2142 7.98827 6.5 8C6.36739 8 6.24021 8.05268 6.14645 8.14645C6.05268 8.24021 6 8.36739 6 8.5C6 8.63261 6.05268 8.75979 6.14645 8.85355C6.24021 8.94732 6.36739 9 6.5 9C7.152 9 8.14 8.836 9.032 8.336C9.94 7.828 10.763 6.961 10.993 5.582ZM14 15C14 15.5304 13.7893 16.0391 13.4142 16.4142C13.0391 16.7893 12.5304 17 12 17C11.4696 17 10.9609 16.7893 10.5858 16.4142C10.2107 16.0391 10 15.5304 10 15C10 14.4696 10.2107 13.9609 10.5858 13.5858C10.9609 13.2107 11.4696 13 12 13C12.5304 13 13.0391 13.2107 13.4142 13.5858C13.7893 13.9609 14 14.4696 14 15ZM22 15C22 15.5304 21.7893 16.0391 21.4142 16.4142C21.0391 16.7893 20.5304 17 20 17C19.4696 17 18.9609 16.7893 18.5858 16.4142C18.2107 16.0391 18 15.5304 18 15C18 14.4696 18.2107 13.9609 18.5858 13.5858C18.9609 13.2107 19.4696 13 20 13C20.5304 13 21.0391 13.2107 21.4142 13.5858C21.7893 13.9609 22 14.4696 22 15ZM21.418 5.007C21.2873 5.0288 21.1706 5.10162 21.0935 5.20943C21.0164 5.31725 20.9853 5.45126 21.007 5.582C21.237 6.962 22.06 7.828 22.968 8.336C23.861 8.836 24.848 9 25.5 9C25.6326 9 25.7598 8.94732 25.8536 8.85355C25.9473 8.75979 26 8.63261 26 8.5C26 8.36739 25.9473 8.24021 25.8536 8.14645C25.7598 8.05268 25.6326 8 25.5 8C24.7858 7.98827 24.085 7.8044 23.457 7.464C22.757 7.072 22.163 6.439 21.993 5.418C21.9712 5.28728 21.8984 5.17056 21.7906 5.09349C21.6827 5.01642 21.5487 4.98531 21.418 5.007ZM12.894 25.447C13.066 25.104 13.995 24 16 24C18.005 24 18.934 25.104 19.106 25.447C19.1622 25.5686 19.2422 25.6776 19.3413 25.7677C19.4404 25.8578 19.5566 25.927 19.683 25.9713C19.8094 26.0156 19.9433 26.0341 20.077 26.0256C20.2107 26.0172 20.3413 25.982 20.461 25.9221C20.5808 25.8622 20.6874 25.7788 20.7743 25.677C20.8613 25.5751 20.9269 25.4569 20.9673 25.3292C21.0077 25.2015 21.022 25.067 21.0094 24.9336C20.9968 24.8003 20.9576 24.6709 20.894 24.553C20.4 23.563 18.795 22 16 22C13.205 22 11.6 23.562 11.106 24.553C10.997 24.7889 10.9842 25.058 11.0701 25.3032C11.1561 25.5484 11.3342 25.7506 11.5666 25.8668C11.799 25.983 12.0676 26.0042 12.3153 25.9258C12.5631 25.8475 12.7707 25.6757 12.894 25.447Z" fill="#402A32"/>
</svg>
